<?xml version="1.0" encoding="utf-8"?>
<!-- Generator: Adobe Illustrator 16.0.0, SVG Export Plug-In . SVG Version: 6.00 Build 0)  -->
<!DOCTYPE svg PUBLIC "-//W3C//DTD SVG 1.1//EN" "http://www.w3.org/Graphics/SVG/1.1/DTD/svg11.dtd">
<svg version="1.1" id="Layer_1" xmlns="http://www.w3.org/2000/svg" xmlns:xlink="http://www.w3.org/1999/xlink" x="0px" y="0px"
	 width="196.878px" height="87.297px" viewBox="0 0 196.878 87.297" enable-background="new 0 0 196.878 87.297"
	 xml:space="preserve">
<g>
	<path fill="#FFFFFF" d="M17.565,20.774L3.944,0h7.104l9.603,15.189L30.353,0h6.909L23.64,20.627v13.67h-6.075V20.774z"/>
	<path fill="#FFFFFF" d="M32.119,21.509v-0.098c0-7.398,5.879-13.523,13.817-13.523s13.768,6.026,13.768,13.425v0.098
		c0,7.349-5.88,13.474-13.866,13.474C37.949,34.885,32.119,28.859,32.119,21.509z M53.775,21.509v-0.098
		c0-4.557-3.283-8.33-7.938-8.33c-4.752,0-7.79,3.724-7.79,8.231v0.098c0,4.507,3.283,8.329,7.888,8.329
		C50.737,29.741,53.775,25.968,53.775,21.509z"/>
	<path fill="#FFFFFF" d="M62.499,24.89V8.427h5.929v14.699c0,4.018,2.009,6.32,5.536,6.32c3.43,0,5.831-2.401,5.831-6.418V8.427
		h5.929v25.87h-5.929V30.28c-1.666,2.45-4.066,4.557-8.084,4.557C65.879,34.836,62.499,30.917,62.499,24.89z"/>
	<path fill="#FFFFFF" d="M90.232,8.427h5.929v5.831c1.617-3.871,4.606-6.516,9.163-6.32v6.271h-0.344
		c-5.193,0-8.819,3.381-8.819,10.24v9.848h-5.929V8.427z"/>
	<path fill="#FFFFFF" d="M108.214,0h12.788c10.779,0,18.227,7.398,18.227,17.051v0.098c0,9.652-7.447,17.148-18.227,17.148h-12.788
		V0z M121.002,28.81c7.203,0,11.906-4.851,11.906-11.563v-0.098c0-6.712-4.703-11.661-11.906-11.661h-6.761V28.81H121.002z"/>
	<path fill="#FFFFFF" d="M158.733,34.297v-3.185c-1.765,2.106-4.459,3.724-8.379,3.724c-4.899,0-9.211-2.793-9.211-7.986v-0.098
		c0-5.732,4.459-8.476,10.485-8.476c3.136,0,5.145,0.441,7.153,1.078v-0.49c0-3.577-2.254-5.537-6.37-5.537
		c-2.891,0-5.046,0.637-7.398,1.617l-1.616-4.752c2.842-1.274,5.635-2.156,9.848-2.156c7.644,0,11.367,4.018,11.367,10.926v15.336
		H158.733z M158.879,23.469c-1.519-0.588-3.626-1.029-5.929-1.029c-3.724,0-5.928,1.519-5.928,4.018v0.098
		c0,2.45,2.204,3.821,4.997,3.821c3.92,0,6.859-2.205,6.859-5.438V23.469z"/>
	<path fill="#FFFFFF" d="M166.917,40.716l2.009-4.41c1.078,0.588,2.254,0.979,3.479,0.979c1.666,0,2.695-0.734,3.675-2.988
		L165.3,8.427h6.321l7.349,19.207l6.713-19.207h6.174l-10.289,26.605c-2.059,5.291-4.361,7.251-8.525,7.251
		C170.543,42.284,168.73,41.696,166.917,40.716z"/>
	<path fill="#FFFFFF" d="M10.877,49.585H0V44h27.83v5.585H16.953v28.712h-6.076V49.585z"/>
	<path fill="#FFFFFF" d="M30.086,42.531h5.929v13.914c1.666-2.449,4.066-4.557,8.084-4.557c5.831,0,9.211,3.92,9.211,9.946v16.463
		h-5.929V63.598c0-4.018-2.009-6.32-5.536-6.32c-3.43,0-5.831,2.401-5.831,6.419v14.601h-5.929V42.531z"/>
	<path fill="#FFFFFF" d="M56.104,65.46v-0.098c0-7.398,5.243-13.475,12.641-13.475c8.231,0,12.396,6.468,12.396,13.915
		c0,0.539-0.049,1.078-0.098,1.666h-19.01c0.637,4.214,3.625,6.565,7.447,6.565c2.891,0,4.949-1.078,7.006-3.087l3.479,3.087
		c-2.45,2.939-5.831,4.851-10.583,4.851C61.886,78.885,56.104,73.447,56.104,65.46z M75.262,63.549
		c-0.392-3.821-2.646-6.811-6.565-6.811c-3.626,0-6.174,2.793-6.713,6.811H75.262z"/>
	<path fill="#FFFFFF" d="M84.279,42.825h6.369v5.634h-6.369V42.825z M84.524,52.427h5.928v25.87h-5.928V52.427z"/>
	<path fill="#FFFFFF" d="M95.255,52.427h5.928v5.831c1.617-3.871,4.606-6.517,9.162-6.32v6.271h-0.343
		c-5.193,0-8.819,3.38-8.819,10.239v9.849h-5.928V52.427z"/>
	<path fill="#FFFFFF" d="M113.237,44h12.788c10.779,0,18.227,7.398,18.227,17.051v0.098c0,9.652-7.447,17.148-18.227,17.148h-12.788
		V44z M126.025,72.81c7.203,0,11.906-4.851,11.906-11.563v-0.098c0-6.713-4.703-11.661-11.906-11.661h-6.761V72.81H126.025z"/>
	<path fill="#FFFFFF" d="M163.755,78.297v-3.185c-1.765,2.106-4.459,3.724-8.379,3.724c-4.899,0-9.211-2.793-9.211-7.986v-0.098
		c0-5.733,4.459-8.477,10.485-8.477c3.136,0,5.145,0.44,7.153,1.078v-0.49c0-3.577-2.254-5.537-6.37-5.537
		c-2.891,0-5.046,0.638-7.398,1.617l-1.616-4.753c2.842-1.273,5.635-2.155,9.848-2.155c7.644,0,11.367,4.018,11.367,10.926v15.336
		H163.755z M163.902,67.469c-1.519-0.588-3.626-1.029-5.929-1.029c-3.724,0-5.929,1.52-5.929,4.018v0.099
		c0,2.449,2.205,3.821,4.998,3.821c3.92,0,6.859-2.204,6.859-5.438V67.469z"/>
	<path fill="#FFFFFF" d="M171.939,84.716l2.009-4.41c1.078,0.588,2.254,0.979,3.479,0.979c1.666,0,2.695-0.734,3.675-2.988
		l-10.779-25.87h6.321l7.349,19.207l6.713-19.207h6.174l-10.289,26.605c-2.059,5.291-4.361,7.251-8.525,7.251
		C175.565,86.284,173.751,85.696,171.939,84.716z"/>
</g>
</svg>
