<?xml version="1.0" encoding="utf-8"?>
<!-- Generator: Adobe Illustrator 16.0.0, SVG Export Plug-In . SVG Version: 6.00 Build 0)  -->
<!DOCTYPE svg PUBLIC "-//W3C//DTD SVG 1.1//EN" "http://www.w3.org/Graphics/SVG/1.1/DTD/svg11.dtd">
<svg version="1.1" id="Layer_1" xmlns="http://www.w3.org/2000/svg" xmlns:xlink="http://www.w3.org/1999/xlink" x="0px" y="0px"
	 width="240.354px" height="138.829px" viewBox="0 0 240.354 138.829" enable-background="new 0 0 240.354 138.829"
	 xml:space="preserve">
<g>
	<path fill="#FFFFFF" d="M23.519,25.521L6.84,0.083h8.699l11.76,18.599L39.178,0.083h8.46l-16.68,25.259v16.739h-7.439V25.521z"/>
	<path fill="#FFFFFF" d="M39.153,26.639v-0.12c0-9.06,7.2-16.56,16.919-16.56c9.721,0,16.859,7.38,16.859,16.439v0.12
		c0,9-7.199,16.499-16.979,16.499C46.293,43.018,39.153,35.639,39.153,26.639z M65.672,26.639v-0.12c0-5.58-4.02-10.2-9.719-10.2
		c-5.82,0-9.54,4.56-9.54,10.08v0.12c0,5.52,4.021,10.2,9.659,10.2C61.953,36.719,65.672,32.099,65.672,26.639z"/>
	<path fill="#FFFFFF" d="M76.899,30.551V10.392h7.26v17.999c0,4.92,2.461,7.74,6.78,7.74c4.2,0,7.14-2.94,7.14-7.859V10.392h7.26
		V42.07h-7.26v-4.92c-2.04,3-4.979,5.58-9.899,5.58C81.04,42.73,76.899,37.931,76.899,30.551z"/>
	<path fill="#FFFFFF" d="M132.387,0h15.659c13.2,0,22.319,9.06,22.319,20.879v0.12c0,11.819-9.119,20.999-22.319,20.999h-15.659V0z
		 M148.046,35.278c8.819,0,14.579-5.94,14.579-14.159v-0.12c0-8.22-5.76-14.279-14.579-14.279h-8.28v28.559H148.046z"/>
	<path fill="#FFFFFF" d="M193.103,41.8v-3.9c-2.159,2.58-5.46,4.56-10.26,4.56c-5.999,0-11.279-3.42-11.279-9.78v-0.12
		c0-7.02,5.46-10.379,12.839-10.379c3.84,0,6.301,0.54,8.76,1.32v-0.6c0-4.38-2.76-6.779-7.799-6.779c-3.54,0-6.18,0.78-9.061,1.979
		l-1.979-5.819c3.479-1.56,6.899-2.64,12.06-2.64c9.359,0,13.92,4.92,13.92,13.379V41.8H193.103z M193.283,28.541
		c-1.86-0.72-4.44-1.26-7.26-1.26c-4.561,0-7.26,1.86-7.26,4.92v0.12c0,3,2.699,4.68,6.119,4.68c4.8,0,8.4-2.7,8.4-6.66V28.541z"/>
	<path fill="#FFFFFF" d="M202.975,49.858l2.461-5.4c1.319,0.72,2.76,1.2,4.26,1.2c2.039,0,3.299-0.9,4.499-3.66l-13.199-31.679
		h7.739l9,23.519l8.22-23.519h7.56l-12.6,32.579c-2.52,6.48-5.34,8.88-10.439,8.88C207.414,51.778,205.195,51.058,202.975,49.858z"
		/>
	<path fill="#FFFFFF" d="M110.12,10.358h7.26v7.14c1.979-4.74,1.216-7.194,11.22-7.194v7.134l-0.004,0.554
		c-6.359,0-11.216,3.586-11.216,11.986v12.06h-7.26V10.358z"/>
</g>
<g>
	<path fill="#FFFFFF" d="M146.108,134.846v-0.022c0-2.046,1.659-3.77,3.748-3.77c2.112,0,3.749,1.702,3.749,3.748v0.021
		c0,2.046-1.659,3.77-3.749,3.77C147.745,138.593,146.108,136.892,146.108,134.846z M153.174,134.823v-0.021
		c0-1.831-1.421-3.338-3.317-3.338c-1.874,0-3.316,1.528-3.316,3.359v0.022c0,1.83,1.421,3.338,3.316,3.338
		C151.731,138.184,153.174,136.654,153.174,134.823z M148.457,132.863h1.679c0.777,0,1.401,0.409,1.401,1.163
		c0,0.625-0.409,0.991-0.926,1.142l1.055,1.465h-0.753l-0.949-1.379h-0.904v1.379h-0.603V132.863z M150.072,134.759
		c0.539,0,0.841-0.279,0.841-0.689c0-0.452-0.323-0.668-0.841-0.668h-1.013v1.357H150.072z"/>
</g>
<g>
	<path fill="#FFFFFF" d="M139.227,53.307h15.659c13.2,0,22.319,9.06,22.319,20.878v0.12c0,11.819-9.119,20.999-22.319,20.999
		h-15.659V53.307z M154.886,88.585c8.819,0,14.579-5.939,14.579-14.159v-0.12c0-8.219-5.76-14.279-14.579-14.279h-8.28v28.558
		H154.886z"/>
	<path fill="#FFFFFF" d="M199.942,95.106v-3.899c-2.159,2.58-5.46,4.56-10.26,4.56c-5.999,0-11.279-3.42-11.279-9.779v-0.12
		c0-7.02,5.46-10.38,12.839-10.38c3.84,0,6.301,0.54,8.76,1.32v-0.601c0-4.38-2.76-6.779-7.799-6.779c-3.54,0-6.18,0.78-9.061,1.979
		l-1.979-5.819c3.479-1.56,6.899-2.64,12.06-2.64c9.359,0,13.92,4.92,13.92,13.379v18.779H199.942z M200.123,81.848
		c-1.86-0.721-4.44-1.261-7.26-1.261c-4.561,0-7.26,1.86-7.26,4.92v0.12c0,3,2.699,4.68,6.119,4.68c4.8,0,8.4-2.699,8.4-6.659
		V81.848z"/>
	<path fill="#FFFFFF" d="M209.814,103.165l2.461-5.4c1.319,0.72,2.76,1.2,4.26,1.2c2.039,0,3.299-0.9,4.499-3.66l-13.199-31.678
		h7.739l9,23.519l8.22-23.519h7.56l-12.6,32.579c-2.52,6.479-5.34,8.88-10.439,8.88
		C214.254,105.085,212.035,104.364,209.814,103.165z"/>
	<path fill="#FFFFFF" d="M13.319,59.605H0v-6.839h34.078v6.839H20.76v35.159h-7.44V59.605z"/>
	<path fill="#FFFFFF" d="M38.426,52.724h7.26v17.04c2.04-3,4.98-5.58,9.9-5.58c7.139,0,11.279,4.8,11.279,12.18v18.441h-7.26V78.523
		c0-4.92-2.46-7.739-6.78-7.739c-4.2,0-7.14,2.939-7.14,7.858v16.162h-7.26V52.724z"/>
	<path fill="#FFFFFF" d="M70.328,79.447v-0.12c0-9.059,6.42-16.499,15.479-16.499c10.08,0,15.18,7.92,15.18,17.039
		c0,0.66-0.061,1.32-0.12,2.04H77.588c0.779,5.16,4.439,8.04,9.119,8.04c3.54,0,6.06-1.32,8.58-3.78l4.26,3.78
		c-3,3.6-7.141,5.939-12.96,5.939C77.407,95.887,70.328,89.227,70.328,79.447z M93.787,77.107c-0.48-4.68-3.24-8.339-8.04-8.339
		c-4.44,0-7.56,3.419-8.22,8.339H93.787z"/>
	<path fill="#FFFFFF" d="M104.836,63.373h7.26v31.679h-7.26V63.373z"/>
	<path fill="#FFFFFF" d="M116.786,63.4h7.26v7.14c1.979-4.74,1.216-7.194,11.22-7.194v7.134l-0.004,0.554
		c-6.359,0-11.216,3.586-11.216,11.985v12.06h-7.26V63.4z"/>
	<circle fill="#FFFFFF" cx="108.11" cy="54.596" r="4.714"/>
</g>
<g>
	<polygon fill="none" stroke="#FFFFFF" stroke-miterlimit="10" points="95.781,138.329 111.861,114.266 127.942,138.329 	"/>
	<polygon fill="none" stroke="#FFFFFF" stroke-miterlimit="10" points="111.861,138.329 127.942,114.266 144.022,138.329 	"/>
</g>
</svg>
